<?xml version="1.0" encoding="UTF-8" standalone="no"?>
<!--
 Copyright (c) 2018 Leonardo Pessoa
 https://lmpessoa.com
 
 Licensed under the Leeow Open Source License, Version 1.0 (the "License"); you may not
 use this file except in compliance with the License. You may obtain a copy of the 
 License at:
 
 https://www.leeow.io/licences/1.0
 
 UNLESS REQUIRED BY APPLICABLE LAW OR AGREED TO IN WRITING, SOFTWARE DISTRIBUTED UNDER
 THE LICENSE IS DISTRIBUTED ON AN "AS IS" BASIS, WITHOUT WARRANTIES OR CONDITIONS OF
 ANY KIND, EITHER EXPRESS OR IMPLIED. See the License for the specific language
 governing permissions and limitations under the License.
-->
<svg
   xmlns:dc="http://purl.org/dc/elements/1.1/"
   xmlns:cc="http://creativecommons.org/ns#"
   xmlns:rdf="http://www.w3.org/1999/02/22-rdf-syntax-ns#"
   xmlns:svg="http://www.w3.org/2000/svg"
   xmlns="http://www.w3.org/2000/svg"
   xmlns:sodipodi="http://sodipodi.sourceforge.net/DTD/sodipodi-0.dtd"
   xmlns:inkscape="http://www.inkscape.org/namespaces/inkscape"
   width="81"
   height="118"
   viewBox="0 0 21.431249 31.220836"
   version="1.1"
   id="svg992"
   inkscape:version="0.92.3 (2405546, 2018-03-11)"
   sodipodi:docname="7.svg">
  <defs
     id="defs986" />
  <sodipodi:namedview
     id="base"
     pagecolor="#ffffff"
     bordercolor="#666666"
     borderopacity="1.0"
     inkscape:pageopacity="0.0"
     inkscape:pageshadow="2"
     inkscape:zoom="4"
     inkscape:cx="29.170833"
     inkscape:cy="70"
     inkscape:document-units="mm"
     inkscape:current-layer="layer1"
     showgrid="false"
     units="px"
     inkscape:window-width="960"
     inkscape:window-height="960"
     inkscape:window-x="960"
     inkscape:window-y="27"
     inkscape:window-maximized="0" />
  <metadata
     id="metadata989">
    <rdf:RDF>
      <cc:Work
         rdf:about="">
        <dc:format>image/svg+xml</dc:format>
        <dc:type
           rdf:resource="http://purl.org/dc/dcmitype/StillImage" />
        <dc:title />
      </cc:Work>
    </rdf:RDF>
  </metadata>
  <g
     inkscape:label="Layer 1"
     inkscape:groupmode="layer"
     id="layer1"
     transform="translate(0,-265.77914)">
    <path
       style="opacity:1;fill:#000000;fill-opacity:1;fill-rule:nonzero;stroke:none;stroke-width:1.10018694;stroke-linejoin:round;stroke-miterlimit:4;stroke-dasharray:none;stroke-dashoffset:0;stroke-opacity:1"
       d="M 0,0 V 118 H 81 V 0 Z m 22.029297,1.8886719 h 47.763672 c 1.338425,0 2.216722,0.1304178 2.84375,0.3945312 0.313512,0.1322835 0.547329,0.3046452 0.74414,0.4804688 0.1968,0.175748 0.4375,0.5253906 0.4375,0.5253906 0.249714,0.5278488 0.143875,1.1538719 -0.263671,1.5722656 L 62.009766,16.664062 c -0.272278,0.287623 -0.654721,0.446798 -1.050782,0.4375 h -31.625 -0.173828 c -0.334711,-0.03402 -1.387664,-0.191263 -1.617187,-0.4375 L 18.048828,5.5605469 C 17.533149,4.991917 17.572597,4.1144177 18.136719,3.59375 c 0,0 0.45866,-0.4224939 1.136719,-0.8300781 0.67806,-0.4075843 1.592031,-0.875 2.755859,-0.875 z m 52.414062,4.3125 c 0.62665,-0.0912 1.235632,0.2489757 1.486329,0.8300781 l 2.886718,6.425781 c 0.118677,0.243969 0.164497,0.517629 0.13086,0.78711 l -4.679688,36.628906 c -0.04806,0.362797 -0.237013,0.692331 -0.52539,0.917969 l -4.986329,4.019531 c -0.537573,0.445606 -1.320187,0.427431 -1.835937,-0.04297 l -7.78711,-7.298828 c -0.324589,-0.301946 -0.487049,-0.739259 -0.4375,-1.179688 l 3.41211,-28.238281 c 0.04315,-0.297713 0.182046,-0.571991 0.394531,-0.785156 L 73.65625,6.6386719 c 0.207088,-0.2284725 0.483651,-0.3823189 0.787109,-0.4375 z M 67.416016,58.775391 c 0.276968,0.01318 0.546045,0.108965 0.771484,0.277343 l 5.335938,3.845704 c 0.400932,0.291968 0.616926,0.774198 0.568359,1.267578 l -3.847656,42.310544 c -0.02714,0.27228 -0.13403,0.53173 -0.306641,0.74414 l -3.236328,4.02149 c -0.252817,0.32738 -0.639194,0.52785 -1.052734,0.54297 -0.413545,0.0168 -0.813133,-0.15127 -1.091797,-0.45704 l -9.666016,-10.66406 c -0.283529,-0.29004 -0.428169,-0.689716 -0.394531,-1.093748 l 3.412109,-32.126953 c 0.03587,-0.334488 0.191264,-0.643629 0.4375,-0.873047 l 8.091797,-7.43164 c 0.195273,-0.180662 0.439364,-0.301987 0.701172,-0.34961 0.09274,-0.01417 0.185021,-0.01807 0.277344,-0.01367 z"
       transform="matrix(0.26458333,0,0,0.26458333,0,265.77914)"
       id="rect1607"
       inkscape:connector-curvature="0" />
    <path
       d="m 4.1883614,267.41982 c -0.088559,0.009 -0.1707335,0.0505 -0.2314616,0.11565 0,0 -0.4812924,0.51356 -0.63652,1.23744 -0.00485,0.0152 -0.0087,0.0306 -0.011554,0.0463 l -1.0300045,9.64512 c -0.00678,0.0814 0.013591,0.16268 0.057866,0.23129 l 0.8448352,1.49188 c 0.055484,0.0966 0.151539,0.16305 0.2615258,0.181 0.1099868,0.0179 0.2222106,-0.0145 0.3055554,-0.0885 l 2.4419212,-2.09324 c 0.065153,-0.0607 0.1062388,-0.1428 0.1157306,-0.2313 l 0.9027007,-7.04302 c 0.015073,-0.10348 -0.014332,-0.20851 -0.081011,-0.28912 l -2.6155174,-3.07626 c -0.080097,-0.0937 -0.2015752,-0.14135 -0.3240463,-0.12721 z"
       id="path1487"
       inkscape:connector-curvature="0"
       style="opacity:0.02000002;fill:#ffffff;fill-rule:evenodd;stroke-width:0.37020758"
       inkscape:label="s4" />
    <path
       d="m 3.2046493,281.21199 c -0.06285,0.008 -0.1226232,0.0318 -0.1735966,0.0694 l -1.2036011,0.8558 c -0.086141,0.0629 -0.1409731,0.15981 -0.1504497,0.26599 l -1.14573554,10.72065 c -0.006259,0.0588 0.001481,0.11833 0.0231459,0.17347 l 0.76382374,1.91978 c 0.047126,0.11718 0.1507982,0.20227 0.2749916,0.22569 0.1241929,0.0234 0.2517636,-0.0181 0.3383819,-0.11004 l 2.9511368,-3.07626 c 0.058492,-0.0594 0.095192,-0.13686 0.1041579,-0.21974 L 5.7507279,283.71 c 0.012369,-0.11079 -0.025887,-0.22124 -0.1041579,-0.30069 l -2.1410208,-2.09324 c -0.079497,-0.0782 -0.1900318,-0.11644 -0.3008999,-0.10408 z"
       id="path1481"
       inkscape:connector-curvature="0"
       style="opacity:0.02000002;fill:#ffffff;fill-rule:evenodd;stroke-width:0.37020758"
       inkscape:label="s3" />
    <path
       sodipodi:nodetypes="ccccscscscccccc"
       d="m 5.2762314,292.44624 c -0.088559,0.009 -0.1707335,0.0505 -0.2314617,0.11565 l -2.708102,2.93748 c -0.1364405,0.15045 -0.1261117,0.38266 0.023146,0.52042 0,0 0.1214971,0.11189 0.3009004,0.21973 0.1794034,0.10784 0.4211752,0.2313 0.7291046,0.2313 H 15.896351 c 0.354125,0 0.58635,-0.0342 0.75225,-0.10409 0.08295,-0.035 0.144669,-0.0807 0.196743,-0.12721 0.05207,-0.0465 0.115731,-0.13878 0.115731,-0.13878 0.06607,-0.13966 0.03838,-0.30563 -0.06944,-0.41633 l -2.793083,-3.12252 c -0.07204,-0.0761 -0.172964,-0.11811 -0.277754,-0.11565 H 5.3225237 Z"
       id="path1483"
       inkscape:connector-curvature="0"
       style="opacity:0.02000002;fill:#ffffff;fill-rule:evenodd;stroke-width:0.37020758"
       inkscape:label="s2" />
    <path
       d="m 6.1324363,278.77654 c -0.077445,0.008 -0.1503389,0.0406 -0.2083158,0.0925 l -1.9442783,1.73473 c -0.077349,0.0684 -0.1225859,0.16604 -0.1247821,0.26925 -0.00222,0.10321 0.038841,0.20264 0.1132089,0.2743 0,0 0.4614165,0.44421 0.9142739,0.8905 0.2264289,0.22314 0.4451842,0.44323 0.6133735,0.61294 0.084093,0.0849 0.1624489,0.15972 0.2083157,0.20816 l 0.011555,0.0115 c 0.00185,0.004 0.00992,0.009 0.011555,0.0115 0.06675,0.11553 0.190554,0.18622 0.3240463,0.18504 h 9.0964456 c 0.133526,0 0.205331,-0.0696 0.3009,-0.16191 0.007,-0.007 0.01915,-0.007 0.0347,-0.0231 0.04329,-0.0437 0.112568,-0.11549 0.196742,-0.19661 0.168349,-0.16223 0.393123,-0.38294 0.624947,-0.60137 0.463653,-0.43686 0.93742,-0.86737 0.93742,-0.86737 0.07583,-0.0701 0.118957,-0.16857 0.118957,-0.27177 0,-0.1032 -0.04312,-0.20172 -0.118957,-0.27178 l -1.828547,-1.79255 c -0.07122,-0.0689 -0.167094,-0.10638 -0.266181,-0.10409 H 6.1786727 Z"
       id="path1491"
       inkscape:connector-curvature="0"
       style="opacity:0.02000002;fill:#ffffff;fill-rule:evenodd;stroke-width:0.37020758"
       inkscape:label="s0" />
  </g>
</svg>
