<?xml version="1.0" encoding="UTF-8" standalone="no"?>
<!--
 Copyright (c) 2018 Leonardo Pessoa
 https://lmpessoa.com
 
 Licensed under the Leeow Open Source License, Version 1.0 (the "License"); you may not
 use this file except in compliance with the License. You may obtain a copy of the 
 License at:
 
 https://www.leeow.io/licences/1.0
 
 UNLESS REQUIRED BY APPLICABLE LAW OR AGREED TO IN WRITING, SOFTWARE DISTRIBUTED UNDER
 THE LICENSE IS DISTRIBUTED ON AN "AS IS" BASIS, WITHOUT WARRANTIES OR CONDITIONS OF
 ANY KIND, EITHER EXPRESS OR IMPLIED. See the License for the specific language
 governing permissions and limitations under the License.
-->

<svg
   xmlns:dc="http://purl.org/dc/elements/1.1/"
   xmlns:cc="http://creativecommons.org/ns#"
   xmlns:rdf="http://www.w3.org/1999/02/22-rdf-syntax-ns#"
   xmlns:svg="http://www.w3.org/2000/svg"
   xmlns="http://www.w3.org/2000/svg"
   xmlns:sodipodi="http://sodipodi.sourceforge.net/DTD/sodipodi-0.dtd"
   xmlns:inkscape="http://www.inkscape.org/namespaces/inkscape"
   width="50mm"
   height="50mm"
   viewBox="0 0 50 50"
   version="1.1"
   id="svg8"
   sodipodi:docname="icon.svg"
   inkscape:version="0.92.3 (2405546, 2018-03-11)"
   inkscape:export-filename="/home/t314344/Private/timer/svg/appicon.png"
   inkscape:export-xdpi="130.048"
   inkscape:export-ydpi="130.048">
  <metadata
     id="metadata7">
    <rdf:RDF>
      <cc:Work
         rdf:about="">
        <dc:format>image/svg+xml</dc:format>
        <dc:type
           rdf:resource="http://purl.org/dc/dcmitype/StillImage" />
      </cc:Work>
    </rdf:RDF>
  </metadata>
  <defs
     id="defs2" />
  <sodipodi:namedview
     id="base"
     inkscape:zoom="2.8284271"
     inkscape:cx="11.733329"
     inkscape:cy="104.31345"
     inkscape:document-units="mm"
     inkscape:current-layer="layer1"
     showgrid="false"
     inkscape:window-width="1920"
     inkscape:window-height="960"
     inkscape:window-x="0"
     inkscape:window-y="27"
     inkscape:window-maximized="1" />
  <g
     inkscape:label="Layer 1"
     inkscape:groupmode="layer"
     id="layer1"
     transform="translate(0,-247)">
    <path
       style="display:inline;opacity:1;fill:#ffffff;fill-opacity:1;fill-rule:nonzero;stroke:#ffffff;stroke-width:2.67971945;stroke-linejoin:round;stroke-miterlimit:4;stroke-dasharray:none;stroke-dashoffset:0;stroke-opacity:1;paint-order:stroke markers fill"
       d="m 23.293244,252.07362 c -1.097909,0 -1.982072,0.88366 -1.982072,1.98156 v 3.86559 c 1.624838,-0.58152 2.659442,-0.35129 3.787374,-0.37589 0.991617,0.0605 2.25328,-0.055 3.568949,0.44142 v -3.93112 c 0,-1.0979 -0.883656,-1.98156 -1.981565,-1.98156 z M 25,259.41673 c -3.350548,0.004 -6.618169,1.04222 -9.355669,2.97413 l -1.565544,-1.61989 c -0.376982,-0.39005 -1.001573,-0.36726 -1.384708,0.0169 l -2.070967,2.07555 c -0.383125,0.38397 -0.360236,0.99468 0.01678,1.38471 l 1.477667,1.52846 c -2.1830224,2.83704 -3.3684835,6.31532 -3.3723845,9.89502 9e-7,8.9773 7.2775355,16.25482 16.2548285,16.25482 8.977293,0 16.254826,-7.27752 16.254827,-16.25482 4e-6,-8.97729 -7.277532,-16.25483 -16.254827,-16.25483 z"
       id="path880"
       inkscape:connector-curvature="0"
       sodipodi:nodetypes="sscccsssscccscccsscs" />
    <ellipse
       style="display:inline;opacity:1;fill:#f0eff1;fill-opacity:1;fill-rule:nonzero;stroke:none;stroke-width:3.27116346;stroke-linejoin:round;stroke-miterlimit:4;stroke-dasharray:none;stroke-dashoffset:0;stroke-opacity:1;paint-order:stroke markers fill"
       id="path814"
       cx="24.5968"
       cy="275.59613"
       rx="14.115342"
       ry="14.863942" />
    <path
       sodipodi:nodetypes="sscccsssscccscccsscscssscccccccccccc"
       inkscape:connector-curvature="0"
       id="path834"
       d="m 23.293244,252.07362 c -1.097909,0 -1.982072,0.88366 -1.982072,1.98156 v 3.86559 c 1.624838,-0.58152 2.659442,-0.35129 3.787374,-0.37589 0.991617,0.0605 2.25328,-0.055 3.568949,0.44142 v -3.93112 c 0,-1.0979 -0.883656,-1.98156 -1.981565,-1.98156 z M 25,259.41673 c -3.350548,0.004 -6.618169,1.04222 -9.355669,2.97413 l -1.565544,-1.61989 c -0.376982,-0.39005 -1.001573,-0.36726 -1.384708,0.0169 l -2.070967,2.07555 c -0.383125,0.38397 -0.360236,0.99468 0.01678,1.38471 l 1.477667,1.52846 c -2.1830224,2.83704 -3.3684835,6.31532 -3.3723845,9.89502 9e-7,8.9773 7.2775355,16.25482 16.2548285,16.25482 8.977293,0 16.254826,-7.27752 16.254827,-16.25482 4e-6,-8.97729 -7.277532,-16.25483 -16.254827,-16.25483 z m 0,3.11191 c 6.894562,0 13.012877,6.11831 13.012875,13.01288 2e-6,6.89456 -6.118313,13.01288 -13.012875,13.01288 -6.894562,0 -13.012877,-6.11832 -13.012875,-13.01288 -2e-6,-6.89457 6.118313,-13.01288 13.012875,-13.01288 z m -0.22706,11.4382 c -0.863386,-1.9e-4 -1.563422,0.69962 -1.563513,1.56301 5.58e-4,0.5909 0.334288,1.13101 0.862523,1.39588 l -5.2e-4,8.1e-4 0.06198,0.0283 c 0.01262,0.006 0.02532,0.0121 0.03809,0.0178 l 9.980465,4.57982 0.735532,-1.05758 -9.222076,-6.24746 c -0.261838,-0.18256 -0.573289,-0.28059 -0.892488,-0.2809 z"
       style="display:inline;opacity:1;fill:#424242;fill-opacity:1;fill-rule:nonzero;stroke:none;stroke-width:2.67971945;stroke-linejoin:round;stroke-miterlimit:4;stroke-dasharray:none;stroke-dashoffset:0;stroke-opacity:1;paint-order:stroke markers fill" />
  </g>
</svg>
