<?xml version="1.0" encoding="UTF-8" standalone="no"?>
<!--
 Copyright (c) 2018 Leonardo Pessoa
 https://lmpessoa.com
 
 Licensed under the Leeow Open Source License, Version 1.0 (the "License"); you may not
 use this file except in compliance with the License. You may obtain a copy of the 
 License at:
 
 https://www.leeow.io/licences/1.0
 
 UNLESS REQUIRED BY APPLICABLE LAW OR AGREED TO IN WRITING, SOFTWARE DISTRIBUTED UNDER
 THE LICENSE IS DISTRIBUTED ON AN "AS IS" BASIS, WITHOUT WARRANTIES OR CONDITIONS OF
 ANY KIND, EITHER EXPRESS OR IMPLIED. See the License for the specific language
 governing permissions and limitations under the License.
-->

<svg
   xmlns:dc="http://purl.org/dc/elements/1.1/"
   xmlns:cc="http://creativecommons.org/ns#"
   xmlns:rdf="http://www.w3.org/1999/02/22-rdf-syntax-ns#"
   xmlns:svg="http://www.w3.org/2000/svg"
   xmlns="http://www.w3.org/2000/svg"
   xmlns:sodipodi="http://sodipodi.sourceforge.net/DTD/sodipodi-0.dtd"
   xmlns:inkscape="http://www.inkscape.org/namespaces/inkscape"
   width="50mm"
   height="50mm"
   viewBox="0 0 50 50"
   version="1.1"
   id="svg8"
   sodipodi:docname="formicon.svg"
   inkscape:version="0.92.3 (2405546, 2018-03-11)"
   inkscape:export-filename="/home/t314344/Private/timer/svg/formicon.png"
   inkscape:export-xdpi="130.048"
   inkscape:export-ydpi="130.048">
  <metadata
     id="metadata7">
    <rdf:RDF>
      <cc:Work
         rdf:about="">
        <dc:format>image/svg+xml</dc:format>
        <dc:type
           rdf:resource="http://purl.org/dc/dcmitype/StillImage" />
        <dc:title></dc:title>
      </cc:Work>
    </rdf:RDF>
  </metadata>
  <defs
     id="defs2" />
  <sodipodi:namedview
     id="base"
     inkscape:zoom="2.8284271"
     inkscape:cx="-53.674049"
     inkscape:cy="104.31345"
     inkscape:document-units="mm"
     inkscape:current-layer="layer1"
     showgrid="false"
     inkscape:window-width="1920"
     inkscape:window-height="960"
     inkscape:window-x="0"
     inkscape:window-y="27"
     inkscape:window-maximized="1" />
  <g
     inkscape:label="Layer 1"
     inkscape:groupmode="layer"
     id="layer1"
     transform="translate(0,-247)">
    <path
       sodipodi:nodetypes="sscccsssscccscccsscscssscccccccccccc"
       inkscape:connector-curvature="0"
       id="path834"
       d="m 22.95929,248.44316 c -1.312732,0 -2.369895,1.05656 -2.369895,2.36929 v 4.62194 c 1.942762,-0.6953 3.179802,-0.42002 4.528431,-0.44944 1.185643,0.0724 2.694169,-0.0658 4.26727,0.5278 v -4.7003 c 0,-1.31273 -1.056557,-2.3693 -2.369289,-2.3693 z m 2.040709,8.24298 c -4.006135,0.005 -7.913116,1.24614 -11.18625,3.55607 l -1.871867,-1.93685 c -0.450745,-0.46638 -1.197546,-0.43912 -1.655648,0.0202 l -2.4761836,2.48166 c -0.4580893,0.4591 -0.4307217,1.18931 0.020063,1.65566 l 1.7667953,1.82752 c -2.6101643,3.39215 -4.0275792,7.55101 -4.0322434,11.83113 1.1e-6,10.73385 8.7014987,19.43533 19.4353357,19.43533 10.733838,0 19.435333,-8.70148 19.435334,-19.43533 5e-6,-10.73383 -8.701493,-19.43533 -19.435334,-19.43533 z m 0,5.33155 c 7.294441,-0.0949 14.057286,6.27261 13.948286,13.9483 -0.108941,7.67157 -6.276708,13.83934 -13.948286,13.94828 -7.675675,0.10899 -13.939973,-6.27483 -13.948287,-13.94828 -0.0082,-7.57979 6.464016,-14.13813 13.948287,-13.9483 z m -0.271488,12.0655 c -1.032321,-2.2e-4 -1.86933,0.83651 -1.869439,1.86884 6.67e-4,0.70653 0.399697,1.35231 1.03129,1.669 l -6.22e-4,9.7e-4 0.07411,0.0338 c 0.01509,0.007 0.03028,0.0145 0.04555,0.0213 l 11.933297,5.47593 0.87945,-1.2645 -11.026518,-7.46987 c -0.31307,-0.21828 -0.685461,-0.33549 -1.067116,-0.33588 z"
       style="display:inline;opacity:1;fill:#c83737;fill-opacity:1;fill-rule:nonzero;stroke:none;stroke-width:3.20404768;stroke-linejoin:round;stroke-miterlimit:4;stroke-dasharray:none;stroke-dashoffset:0;stroke-opacity:1;paint-order:stroke markers fill" />
  </g>
</svg>
