<?xml version="1.0" encoding="UTF-8"?>
<svg width="330px" height="130px" viewBox="0 0 330 130" version="1.1" xmlns="http://www.w3.org/2000/svg" xmlns:xlink="http://www.w3.org/1999/xlink">
    <!-- Generator: Sketch 43.2 (39069) - http://www.bohemiancoding.com/sketch -->
    <title>Header</title>
    <desc>Created with Sketch.</desc>
    <defs></defs>
    <g id="Page-2" stroke="none" stroke-width="1" fill="none" fill-rule="evenodd">
        <g id="Header">
            <path d="M194.224,36.648 L194.224,43.624 L180.592,43.624 L180.592,81 L172.464,81 L172.464,43.624 L158.832,43.624 L158.832,36.648 L194.224,36.648 Z M207.398153,81 L199.654153,81 L199.654153,47.528 L207.398153,47.528 L207.398153,81 Z M208.230153,37.736 C208.230153,39.1866739 207.760825,40.3386624 206.822153,41.192 C205.883482,42.0453376 204.77416,42.472 203.494153,42.472 C202.17148,42.472 201.040825,42.0453376 200.102153,41.192 C199.163482,40.3386624 198.694153,39.1866739 198.694153,37.736 C198.694153,36.2426592 199.163482,35.0693376 200.102153,34.216 C201.040825,33.3626624 202.17148,32.936 203.494153,32.936 C204.77416,32.936 205.883482,33.3626624 206.822153,34.216 C207.760825,35.0693376 208.230153,36.2426592 208.230153,37.736 Z M235.932307,63.4 C235.932307,59.9013158 235.494978,57.3733411 234.620307,55.816 C233.745636,54.2586589 232.113652,53.48 229.724307,53.48 C228.870969,53.48 227.932312,53.5439994 226.908307,53.672 C225.884302,53.8000006 225.11631,53.9066662 224.604307,53.992 L224.604307,81 L216.860307,81 L216.860307,48.616 C218.353648,48.1893312 220.305628,47.7840019 222.716307,47.4 C225.126986,47.0159981 227.676294,46.824 230.364307,46.824 C232.668318,46.824 234.5563,47.1226637 236.028307,47.72 C237.500314,48.3173363 238.726969,49.1066618 239.708307,50.088 C240.177643,49.746665 240.77497,49.3840019 241.500307,49 C242.225644,48.6159981 243.036302,48.2640016 243.932307,47.944 C244.828311,47.6239984 245.777635,47.3573344 246.780307,47.144 C247.782979,46.9306656 248.796302,46.824 249.820307,46.824 C252.422987,46.824 254.566965,47.1973296 256.252307,47.944 C257.937649,48.6906704 259.260302,49.7359933 260.220307,51.08 C261.180312,52.4240067 261.841638,54.0453238 262.204307,55.944 C262.566975,57.8426762 262.748307,59.9226554 262.748307,62.184 L262.748307,81 L255.004307,81 L255.004307,63.4 C255.004307,59.9013158 254.577645,57.3733411 253.724307,55.816 C252.870969,54.2586589 251.228319,53.48 248.796307,53.48 C247.558967,53.48 246.385646,53.6826646 245.276307,54.088 C244.166968,54.4933354 243.334976,54.8879981 242.780307,55.272 C243.121642,56.338672 243.356306,57.4693274 243.484307,58.664 C243.612308,59.8586726 243.676307,61.1386598 243.676307,62.504 L243.676307,81 L235.932307,81 L235.932307,63.4 Z M269.97046,64.424 C269.97046,61.4799853 270.407789,58.8986778 271.28246,56.68 C272.157132,54.4613222 273.319787,52.6160074 274.77046,51.144 C276.221134,49.6719926 277.885118,48.5626704 279.76246,47.816 C281.639803,47.0693296 283.559784,46.696 285.52246,46.696 C290.130484,46.696 293.725114,48.125319 296.30646,50.984 C298.887807,53.842681 300.17846,58.109305 300.17846,63.784 C300.17846,64.2106688 300.167794,64.690664 300.14646,65.224 C300.125127,65.757336 300.093127,66.2373312 300.05046,66.664 L277.97046,66.664 C278.183795,69.3520134 279.133119,71.4319926 280.81846,72.904 C282.503802,74.3760074 284.946444,75.112 288.14646,75.112 C290.023803,75.112 291.741119,74.941335 293.29846,74.6 C294.855802,74.258665 296.082456,73.8960019 296.97846,73.512 L298.00246,79.848 C297.575792,80.0613344 296.989131,80.2853322 296.24246,80.52 C295.49579,80.7546678 294.642465,80.967999 293.68246,81.16 C292.722456,81.352001 291.687799,81.5119994 290.57846,81.64 C289.469122,81.7680006 288.338466,81.832 287.18646,81.832 C284.242446,81.832 281.682471,81.394671 279.50646,80.52 C277.33045,79.645329 275.538468,78.4293411 274.13046,76.872 C272.722453,75.3146589 271.677131,73.4800106 270.99446,71.368 C270.31179,69.2559894 269.97046,66.9413459 269.97046,64.424 Z M292.43446,60.968 C292.43446,59.901328 292.285129,58.8880048 291.98646,57.928 C291.687792,56.9679952 291.250463,56.1360035 290.67446,55.432 C290.098458,54.7279965 289.394465,54.1733354 288.56246,53.768 C287.730456,53.3626646 286.738466,53.16 285.58646,53.16 C284.391788,53.16 283.346465,53.3839978 282.45046,53.832 C281.554456,54.2800022 280.79713,54.866663 280.17846,55.592 C279.559791,56.317337 279.079796,57.1493286 278.73846,58.088 C278.397125,59.0266714 278.162461,59.9866618 278.03446,60.968 L292.43446,60.968 Z M327.048614,54.504 C326.408611,54.2906656 325.523286,54.0666678 324.392614,53.832 C323.261942,53.5973322 321.949955,53.48 320.456614,53.48 C319.603276,53.48 318.696619,53.5653325 317.736614,53.736 C316.776609,53.9066675 316.104616,54.0559994 315.720614,54.184 L315.720614,81 L307.976614,81 L307.976614,49.128 C309.469955,48.5733306 311.336603,48.0506691 313.576614,47.56 C315.816625,47.0693309 318.301934,46.824 321.032614,46.824 C321.544617,46.824 322.141944,46.8559997 322.824614,46.92 C323.507284,46.9840003 324.189944,47.0693328 324.872614,47.176 C325.555284,47.2826672 326.216611,47.4106659 326.856614,47.56 C327.496617,47.7093341 328.008612,47.8479994 328.392614,47.976 L327.048614,54.504 Z" id="Timer" fill="#424242"></path>
            <path d="M163.743385,102.196 C164.233385,99.564 165.241385,93.558 165.213385,92.494 L164.051385,92.494 L164.135385,91.948 L166.823385,91.948 C166.823385,92.872 166.333385,95.966 166.249385,96.526 C166.207385,96.764 166.179385,96.96 166.123385,97.17 L166.179385,97.17 C166.655385,96.4 167.271385,95.476 168.447385,95.476 C169.693385,95.476 170.309385,96.484 170.309385,97.912 C170.309385,100.04 168.951385,102.196 166.837385,102.196 C165.857385,102.196 165.437385,101.762 165.241385,101.216 C164.947385,101.412 164.597385,101.734 164.387385,102.196 L163.743385,102.196 Z M165.703385,100.418 C165.703385,101.118 166.011385,101.538 166.613385,101.538 C167.873385,101.538 168.713385,99.452 168.713385,97.422 C168.713385,96.568 168.503385,96.204 168.055385,96.204 C167.677385,96.204 167.313385,96.526 166.935385,97.002 C166.291385,97.884 165.703385,99.41 165.703385,100.418 Z M170.727231,97.8 L171.287231,97.912 C171.539231,96.89 171.847231,96.456 172.057231,96.456 C172.253231,96.456 172.351231,96.638 172.603231,97.45 C172.953231,98.612 173.597231,100.992 173.597231,102.532 C173.597231,103.386 173.219231,104.786 172.197231,104.786 C171.413231,104.786 171.693231,103.54 171.833231,103.134 C170.741231,103.064 170.363231,103.624 170.363231,104.114 C170.363231,104.996 171.273231,105.304 172.099231,105.304 C173.779231,105.304 174.885231,103.708 174.927231,101.594 C175.725231,100.88 176.411231,100.054 176.915231,98.99 C177.195231,98.416 177.447231,97.618 177.447231,96.904 C177.447231,96.19 177.195231,95.476 176.313231,95.476 C175.543231,95.476 175.291231,95.98 175.291231,96.61 C176.131231,96.442 176.649231,96.876 176.649231,97.688 C176.649231,98.304 176.299231,99.032 175.907231,99.648 C175.599231,100.124 175.235231,100.558 174.899231,100.894 C174.787231,99.312 174.241231,97.618 174.003231,96.89 C173.639231,95.854 173.247231,95.546 172.589231,95.546 C171.567231,95.546 171.021231,96.54 170.727231,97.8 Z M180.788924,102 L187.872924,102 L187.956924,101.23 C188.040924,100.432 188.348924,99.004 188.348924,99.004 L187.844924,99.004 C187.060924,101.216 186.794924,101.412 186.150924,101.412 L183.812924,101.412 L184.960924,93.292 L186.234924,93.292 L186.304924,92.746 L182.090924,92.746 L182.020924,93.292 L183.308924,93.292 L182.160924,101.454 L180.872924,101.454 L180.788924,102 Z M189.10277,99.508 C189.10277,97.632 190.01277,95.476 192.65877,95.476 C193.49877,95.476 194.52077,95.714 194.52077,96.792 C194.52077,98.15 193.02277,98.528 191.93077,98.878 C191.21677,99.116 190.86677,99.34 190.67077,99.522 C190.65677,99.704 190.65677,99.872 190.65677,100.012 C190.65677,101.202 191.03477,101.622 191.77677,101.622 C192.64477,101.622 193.30277,100.936 193.68077,100.11 L194.25477,100.292 C193.72277,101.384 193.00877,102.196 191.53877,102.196 C189.88677,102.196 189.10277,101.244 189.10277,99.508 Z M192.47677,95.966 C191.46877,95.966 190.95077,97.492 190.75477,98.822 C190.97877,98.654 191.27277,98.5 191.79077,98.318 C192.49077,98.08 193.09277,97.716 193.09277,96.652 C193.09277,96.218 192.88277,95.966 192.47677,95.966 Z M195.246616,99.466 C195.246616,97.324 196.282616,95.476 198.802616,95.476 C200.678616,95.476 201.420616,96.624 201.420616,98.178 C201.420616,100.362 200.314616,102.196 197.850616,102.196 C195.918616,102.196 195.246616,100.978 195.246616,99.466 Z M196.814616,100.026 C196.814616,101.118 197.136616,101.706 197.864616,101.706 C199.236616,101.706 199.838616,99.592 199.838616,97.646 C199.838616,96.61 199.530616,95.966 198.774616,95.966 C197.290616,95.966 196.814616,98.318 196.814616,100.026 Z M202.524462,102 L204.064462,102 C204.190462,100.922 204.554462,99.676 205.002462,98.626 C205.576462,97.296 206.304462,96.26 206.920462,96.26 C207.228462,96.26 207.312462,96.484 207.312462,96.946 C207.312462,98.136 206.640462,99.97 206.640462,100.922 C206.640462,101.79 207.200462,102.126 207.886462,102.126 C209.034462,102.126 209.538462,101.244 210.014462,99.9 L209.454462,99.76 C209.104462,100.768 208.698462,101.398 208.348462,101.398 C208.222462,101.398 208.138462,101.314 208.138462,101.02 C208.138462,100.11 208.838462,98.29 208.838462,97.044 C208.838462,96.022 208.348462,95.476 207.438462,95.476 C205.828462,95.476 204.960462,97.282 204.540462,98.346 L204.512462,98.346 C204.722462,97.282 204.932462,96.47 204.932462,95.672 L202.342462,95.672 L202.258462,96.218 L203.336462,96.218 C203.336462,97.03 203.084462,98.43 202.524462,102 Z M212.182308,102.196 C211.006308,102.196 210.362308,101.244 210.362308,99.76 C210.362308,97.632 211.692308,95.476 213.750308,95.476 C214.632308,95.476 215.066308,95.882 215.262308,96.414 C215.500308,96.232 215.822308,95.91 216.046308,95.476 L216.676308,95.476 C216.326308,97.17 215.808308,100.152 215.808308,101.02 C215.808308,101.3 215.878308,101.398 216.032308,101.398 C216.438308,101.398 216.872308,100.516 217.124308,99.76 L217.684308,99.9 C217.292308,100.964 216.844308,102.126 215.556308,102.126 C214.772308,102.126 214.408308,101.734 214.408308,100.95 C214.408308,100.796 214.422308,100.586 214.464308,100.362 L214.408308,100.362 C214.002308,101.188 213.344308,102.196 212.182308,102.196 Z M211.944308,100.32 C211.944308,101.16 212.140308,101.496 212.504308,101.496 C213.008308,101.496 213.484308,100.922 213.876308,100.194 C214.352308,99.326 214.800308,98.052 214.800308,97.254 C214.800308,96.68 214.562308,96.092 213.918308,96.092 C212.700308,96.092 211.944308,98.388 211.944308,100.32 Z M218.284154,102 L219.824154,102 C219.866154,101.258 220.468154,99.102 221.154154,97.674 C221.518154,96.918 221.938154,96.316 222.302154,96.316 C222.484154,96.316 222.554154,96.428 222.554154,96.722 C222.554154,97.17 222.358154,97.702 222.344154,97.814 C223.436154,97.842 223.912154,97.212 223.912154,96.526 C223.912154,95.784 223.324154,95.476 222.764154,95.476 C221.588154,95.476 220.930154,96.624 220.342154,98.164 L220.314154,98.164 C220.538154,97.114 220.692154,96.372 220.692154,95.672 L218.102154,95.672 L218.018154,96.218 L219.096154,96.218 C219.096154,96.946 218.844154,98.458 218.284154,102 Z M225.786,102.196 C224.61,102.196 223.98,101.3 223.98,99.816 C223.98,97.688 225.352,95.476 227.452,95.476 C228.152,95.476 228.544,95.77 228.74,96.064 C228.95,94.636 229.202,93.096 229.202,92.494 L228.026,92.494 L228.096,91.948 L230.812,91.948 C230.812,93.684 229.538,99.956 229.538,101.02 C229.538,101.3 229.608,101.398 229.762,101.398 C230.168,101.398 230.588,100.516 230.854,99.76 L231.414,99.9 C231.022,100.964 230.574,102.126 229.272,102.126 C228.53,102.126 228.068,101.748 228.068,100.964 C228.068,100.81 228.082,100.614 228.11,100.418 L228.068,100.418 C227.634,101.216 226.92,102.196 225.786,102.196 Z M225.576,100.278 C225.576,101.118 225.758,101.468 226.178,101.468 C227.158,101.468 228.474,98.738 228.474,97.226 C228.474,96.582 228.208,96.134 227.592,96.134 C226.234,96.134 225.576,98.668 225.576,100.278 Z M231.817846,99.466 C231.817846,97.324 232.853846,95.476 235.373846,95.476 C237.249846,95.476 237.991846,96.624 237.991846,98.178 C237.991846,100.362 236.885846,102.196 234.421846,102.196 C232.489846,102.196 231.817846,100.978 231.817846,99.466 Z M233.385846,100.026 C233.385846,101.118 233.707846,101.706 234.435846,101.706 C235.807846,101.706 236.409846,99.592 236.409846,97.646 C236.409846,96.61 236.101846,95.966 235.345846,95.966 C233.861846,95.966 233.385846,98.318 233.385846,100.026 Z M241.557538,102 L245.897538,102 L245.981538,101.454 L244.567538,101.454 L245.701538,93.334 L246.401538,93.334 C247.843538,93.334 248.137538,94.174 248.137538,95 C248.137538,96.54 247.493538,97.786 246.289538,97.786 C246.093538,97.786 245.883538,97.758 245.883538,97.758 L245.799538,98.318 C245.799538,98.318 246.037538,98.36 246.387538,98.36 C248.879538,98.36 249.887538,96.792 249.887538,95.196 C249.887538,93.838 249.075538,92.746 246.513538,92.746 L242.859538,92.746 L242.789538,93.292 L244.063538,93.292 L242.915538,101.454 L241.641538,101.454 L241.557538,102 Z M250.081384,99.508 C250.081384,97.632 250.991384,95.476 253.637384,95.476 C254.477384,95.476 255.499384,95.714 255.499384,96.792 C255.499384,98.15 254.001384,98.528 252.909384,98.878 C252.195384,99.116 251.845384,99.34 251.649384,99.522 C251.635384,99.704 251.635384,99.872 251.635384,100.012 C251.635384,101.202 252.013384,101.622 252.755384,101.622 C253.623384,101.622 254.281384,100.936 254.659384,100.11 L255.233384,100.292 C254.701384,101.384 253.987384,102.196 252.517384,102.196 C250.865384,102.196 250.081384,101.244 250.081384,99.508 Z M253.455384,95.966 C252.447384,95.966 251.929384,97.492 251.733384,98.822 C251.957384,98.654 252.251384,98.5 252.769384,98.318 C253.469384,98.08 254.071384,97.716 254.071384,96.652 C254.071384,96.218 253.861384,95.966 253.455384,95.966 Z M255.97323,100.88 C255.97323,101.692 256.95323,102.196 258.29723,102.196 C260.17323,102.196 261.06923,101.286 261.06923,100.152 C261.06923,97.94 257.84923,98.332 257.84923,96.876 C257.84923,96.302 258.36723,95.98 259.12323,95.98 C259.83723,95.98 260.17323,96.344 260.17323,96.89 C260.17323,97.282 260.04723,97.632 260.04723,97.632 C260.92923,97.66 261.40523,97.268 261.40523,96.708 C261.40523,95.98 260.46723,95.476 259.16523,95.476 C257.59723,95.476 256.53323,96.218 256.53323,97.436 C256.53323,99.522 259.72523,99.144 259.72523,100.698 C259.72523,101.356 259.10923,101.692 258.45123,101.692 C257.40123,101.692 257.05123,100.866 257.17723,99.97 C256.43523,99.97 255.97323,100.32 255.97323,100.88 Z M261.963076,100.88 C261.963076,101.692 262.943076,102.196 264.287076,102.196 C266.163076,102.196 267.059076,101.286 267.059076,100.152 C267.059076,97.94 263.839076,98.332 263.839076,96.876 C263.839076,96.302 264.357076,95.98 265.113076,95.98 C265.827076,95.98 266.163076,96.344 266.163076,96.89 C266.163076,97.282 266.037076,97.632 266.037076,97.632 C266.919076,97.66 267.395076,97.268 267.395076,96.708 C267.395076,95.98 266.457076,95.476 265.155076,95.476 C263.587076,95.476 262.523076,96.218 262.523076,97.436 C262.523076,99.522 265.715076,99.144 265.715076,100.698 C265.715076,101.356 265.099076,101.692 264.441076,101.692 C263.391076,101.692 263.041076,100.866 263.167076,99.97 C262.425076,99.97 261.963076,100.32 261.963076,100.88 Z M268.204923,99.466 C268.204923,97.324 269.240923,95.476 271.760923,95.476 C273.636923,95.476 274.378923,96.624 274.378923,98.178 C274.378923,100.362 273.272923,102.196 270.808923,102.196 C268.876923,102.196 268.204923,100.978 268.204923,99.466 Z M269.772923,100.026 C269.772923,101.118 270.094923,101.706 270.822923,101.706 C272.194923,101.706 272.796923,99.592 272.796923,97.646 C272.796923,96.61 272.488923,95.966 271.732923,95.966 C270.248923,95.966 269.772923,98.318 269.772923,100.026 Z M277.064769,102.196 C275.888769,102.196 275.244769,101.244 275.244769,99.76 C275.244769,97.632 276.574769,95.476 278.632769,95.476 C279.514769,95.476 279.948769,95.882 280.144769,96.414 C280.382769,96.232 280.704769,95.91 280.928769,95.476 L281.558769,95.476 C281.208769,97.17 280.690769,100.152 280.690769,101.02 C280.690769,101.3 280.760769,101.398 280.914769,101.398 C281.320769,101.398 281.754769,100.516 282.006769,99.76 L282.566769,99.9 C282.174769,100.964 281.726769,102.126 280.438769,102.126 C279.654769,102.126 279.290769,101.734 279.290769,100.95 C279.290769,100.796 279.304769,100.586 279.346769,100.362 L279.290769,100.362 C278.884769,101.188 278.226769,102.196 277.064769,102.196 Z M276.826769,100.32 C276.826769,101.16 277.022769,101.496 277.386769,101.496 C277.890769,101.496 278.366769,100.922 278.758769,100.194 C279.234769,99.326 279.682769,98.052 279.682769,97.254 C279.682769,96.68 279.444769,96.092 278.800769,96.092 C277.582769,96.092 276.826769,98.388 276.826769,100.32 Z" id="by-Leonardo-Pessoa" fill="#BBBBBB"></path>
            <g id="Group" transform="translate(1.000000, 1.000000)">
                <rect id="Rectangle-3" fill="#F5F5F5" x="-9.43689571e-16" y="0" width="127" height="111"></rect>
                <path d="M68,8 L9,8 L9,103 L120,103 L120,59 L112,59 L112,95 L16,95 L16,31 L68,31 L68,8 Z" id="Combined-Shape" fill="#424242"></path>
                <rect id="Rectangle-4" fill="#FCA000" x="78" y="8" width="42" height="42"></rect>
                <polygon id="L" fill="#F5F5F5" points="90 15 95.0959879 15 95.0959879 36.9208315 108 36.9208315 108 42 90 42"></polygon>
                <path d="M54.9999985,71.4357838 L54.9999985,56 L0.000307536079,56 L0.000307536079,71.4357838 C-0.00309328505,75.3048076 0.0233280593,105.780995 0.000307536079,109.645297 L0.000307536079,127 L54.9999985,127 L54.9999985,109.645297 C54.9999985,100.144843 49.2879106,91.5266517 49.2879106,91.5266517 C49.2879106,91.5266517 55.0033993,75.3048076 54.9999985,71.4357838 Z" id="Path" fill="#F5F5F5"></path>
                <path d="M45.9999965,76.566 L45.9999965,63 L9.00000352,63 L9.00000352,76.566 C8.99762852,79.5903778 10.195518,82.491753 12.3300029,84.6315 L19.2176939,91.5 L12.3300029,98.3685 C10.2111854,100.518681 9.01608016,103.413313 9.00000352,106.434 L9.00000352,120 L45.9999965,120 L45.9999965,106.434 C45.9839198,103.413313 44.7888146,100.518681 42.6699971,98.3685 L35.7823061,91.5 L42.6699971,84.6315 C44.804482,82.491753 46.0023715,79.5903778 45.9999965,76.566 Z M40,76.6005495 C39.9936856,78.1063518 39.490696,79.4077729 38.4285135,80.4693595 L30.6230852,88.3455958 C28.9689374,90.0107945 28.9689374,93.0384629 30.6230852,94.7036616 L38.4285135,102.579898 C39.490696,103.641485 39.9936856,104.893648 40,106.399451 L40,114 L15,114 L15,106.399451 C15.0063144,104.893648 15.6130638,103.641485 16.6752462,102.579898 L24.4806746,94.7036616 C26.1348223,93.0384629 26.1348223,90.1511877 24.4806746,88.485989 L16.6752462,80.6097527 C15.6130638,79.5481661 15.0063144,78.1063518 15,76.6005495 L15,69 L40,69 L40,76.6005495 Z" id="Shape" fill="#424242" fill-rule="nonzero"></path>
            </g>
        </g>
    </g>
</svg>