<?xml version="1.0" encoding="UTF-8" standalone="no"?>
<!DOCTYPE svg PUBLIC "-//W3C//DTD SVG 1.1//EN" "http://www.w3.org/Graphics/SVG/1.1/DTD/svg11.dtd">
<svg width="100%" height="100%" viewBox="0 0 320 130" version="1.1" xmlns="http://www.w3.org/2000/svg" xmlns:xlink="http://www.w3.org/1999/xlink" xml:space="preserve" xmlns:serif="http://www.serif.com/" style="fill-rule:evenodd;clip-rule:evenodd;stroke-linejoin:round;stroke-miterlimit:2;">
    <g id="Header" transform="matrix(0.900181,0,0,1.06614,-235.717,-214.603)">
        <rect x="261.855" y="201.29" width="355.484" height="121.935" style="fill:none;"/>
        <g transform="matrix(1.11089,0,0,0.937965,281.922,191.605)">
            <g transform="matrix(12,0,0,12,136.96,105.582)">
                <path d="M0.047,-0.664L0.074,-0.688L0.216,-0.688L0.176,-0.365C0.191,-0.39 0.209,-0.412 0.232,-0.431C0.255,-0.449 0.284,-0.458 0.319,-0.458C0.372,-0.458 0.411,-0.44 0.438,-0.403C0.465,-0.366 0.478,-0.321 0.478,-0.268C0.478,-0.227 0.471,-0.185 0.456,-0.141C0.441,-0.099 0.418,-0.063 0.387,-0.034C0.356,-0.005 0.315,0.01 0.264,0.01C0.198,0.01 0.155,-0.017 0.135,-0.07C0.132,-0.059 0.13,-0.047 0.127,-0.035C0.124,-0.023 0.12,-0.011 0.117,-0L0.014,-0C0.021,-0.022 0.027,-0.045 0.033,-0.068C0.039,-0.091 0.043,-0.113 0.046,-0.135L0.103,-0.606L0.04,-0.606L0.047,-0.664ZM0.252,-0.072C0.291,-0.072 0.32,-0.093 0.339,-0.134C0.358,-0.174 0.367,-0.215 0.367,-0.254C0.367,-0.289 0.36,-0.318 0.347,-0.341C0.334,-0.364 0.313,-0.375 0.284,-0.375C0.248,-0.375 0.22,-0.36 0.199,-0.33C0.178,-0.299 0.166,-0.268 0.161,-0.235L0.16,-0.229L0.154,-0.183C0.153,-0.15 0.162,-0.124 0.18,-0.103C0.197,-0.082 0.221,-0.072 0.252,-0.072Z" style="fill:#a6a6a6;fill-rule:nonzero;"/>
            </g>
            <g transform="matrix(12,0,0,12,142.792,105.582)">
                <path d="M0.245,-0.123L0.251,-0.123C0.286,-0.168 0.312,-0.208 0.329,-0.244C0.346,-0.28 0.354,-0.317 0.354,-0.356C0.354,-0.37 0.353,-0.385 0.35,-0.401C0.347,-0.416 0.342,-0.432 0.335,-0.449L0.452,-0.449C0.46,-0.41 0.46,-0.368 0.453,-0.325C0.445,-0.281 0.424,-0.235 0.39,-0.188C0.377,-0.169 0.359,-0.146 0.336,-0.119C0.313,-0.092 0.29,-0.065 0.266,-0.04L0.241,0.131L0.31,0.131L0.302,0.189L0.275,0.213L0.055,0.213L0.063,0.155L0.09,0.131L0.138,0.131L0.164,-0.043L0.06,-0.366L0.009,-0.366L0.017,-0.425L0.044,-0.449L0.245,-0.449L0.238,-0.39L0.21,-0.366L0.17,-0.366L0.245,-0.123Z" style="fill:#a6a6a6;fill-rule:nonzero;"/>
            </g>
            <g transform="matrix(12,0,0,12,150.676,105.582)">
                <path d="M0.477,-0L0.009,-0L0.019,-0.095L0.092,-0.095L0.14,-0.555L0.067,-0.555L0.077,-0.65L0.354,-0.65L0.344,-0.555L0.247,-0.555L0.199,-0.095L0.396,-0.095L0.429,-0.23L0.519,-0.222L0.477,-0Z" style="fill:#a6a6a6;fill-rule:nonzero;"/>
            </g>
            <g transform="matrix(12,0,0,12,156.976,105.582)">
                <path d="M0.222,-0.072C0.255,-0.072 0.278,-0.081 0.292,-0.099C0.305,-0.117 0.315,-0.135 0.321,-0.152L0.404,-0.135C0.397,-0.096 0.376,-0.063 0.342,-0.034C0.308,-0.005 0.263,0.01 0.206,0.01C0.152,0.01 0.108,-0.006 0.073,-0.039C0.038,-0.071 0.02,-0.121 0.02,-0.189C0.02,-0.262 0.041,-0.326 0.084,-0.379C0.126,-0.432 0.184,-0.458 0.257,-0.458C0.302,-0.458 0.339,-0.447 0.369,-0.426C0.398,-0.404 0.413,-0.375 0.413,-0.339C0.413,-0.306 0.401,-0.277 0.378,-0.254C0.354,-0.231 0.312,-0.213 0.253,-0.2C0.236,-0.196 0.217,-0.193 0.197,-0.19C0.176,-0.187 0.155,-0.184 0.132,-0.181C0.133,-0.146 0.141,-0.119 0.154,-0.101C0.167,-0.082 0.19,-0.072 0.222,-0.072ZM0.202,-0.256C0.246,-0.265 0.274,-0.277 0.286,-0.29C0.299,-0.303 0.305,-0.317 0.305,-0.332C0.305,-0.351 0.299,-0.364 0.288,-0.372C0.276,-0.379 0.261,-0.383 0.244,-0.383C0.209,-0.383 0.184,-0.369 0.167,-0.341C0.15,-0.312 0.14,-0.28 0.135,-0.245C0.148,-0.246 0.16,-0.248 0.171,-0.251C0.182,-0.253 0.193,-0.255 0.202,-0.256Z" style="fill:#a6a6a6;fill-rule:nonzero;"/>
            </g>
            <g transform="matrix(12,0,0,12,162.184,105.582)">
                <path d="M0.021,-0.192C0.021,-0.261 0.041,-0.323 0.08,-0.377C0.118,-0.431 0.178,-0.458 0.259,-0.458C0.326,-0.458 0.375,-0.438 0.405,-0.399C0.435,-0.36 0.45,-0.31 0.45,-0.251C0.45,-0.175 0.428,-0.113 0.385,-0.064C0.341,-0.015 0.282,0.01 0.209,0.01C0.148,0.01 0.102,-0.008 0.07,-0.044C0.037,-0.08 0.021,-0.129 0.021,-0.192ZM0.132,-0.2C0.132,-0.161 0.138,-0.13 0.15,-0.107C0.162,-0.084 0.185,-0.072 0.219,-0.072C0.262,-0.072 0.293,-0.09 0.312,-0.125C0.331,-0.16 0.34,-0.201 0.34,-0.248C0.34,-0.333 0.309,-0.375 0.248,-0.375C0.171,-0.375 0.132,-0.317 0.132,-0.2Z" style="fill:#a6a6a6;fill-rule:nonzero;"/>
            </g>
            <g transform="matrix(12,0,0,12,167.884,105.582)">
                <path d="M0.059,-0.449L0.188,-0.449L0.191,-0.362C0.206,-0.391 0.226,-0.415 0.25,-0.432C0.274,-0.449 0.303,-0.458 0.338,-0.458C0.379,-0.458 0.413,-0.445 0.439,-0.419C0.465,-0.393 0.475,-0.352 0.468,-0.297L0.442,-0.082L0.507,-0.082L0.499,-0.022L0.472,-0L0.33,-0L0.362,-0.258C0.367,-0.301 0.364,-0.331 0.351,-0.348C0.338,-0.366 0.318,-0.375 0.291,-0.375C0.258,-0.375 0.233,-0.364 0.215,-0.341C0.197,-0.318 0.186,-0.29 0.182,-0.257L0.182,-0.258L0.15,-0L0.048,-0L0.093,-0.366L0.024,-0.366L0.031,-0.425L0.059,-0.449Z" style="fill:#a6a6a6;fill-rule:nonzero;"/>
            </g>
            <g transform="matrix(12,0,0,12,174.208,105.582)">
                <path d="M0.478,-0.449C0.471,-0.424 0.464,-0.398 0.458,-0.373C0.451,-0.348 0.447,-0.322 0.444,-0.297L0.417,-0.082L0.478,-0.082L0.471,-0.022L0.445,-0L0.321,-0L0.319,-0.091C0.305,-0.064 0.286,-0.04 0.262,-0.02C0.238,-0 0.207,0.01 0.17,0.01C0.121,0.01 0.084,-0.008 0.059,-0.044C0.034,-0.08 0.021,-0.126 0.021,-0.181C0.021,-0.22 0.028,-0.262 0.042,-0.305C0.056,-0.347 0.078,-0.384 0.109,-0.413C0.139,-0.443 0.179,-0.458 0.229,-0.458C0.296,-0.458 0.339,-0.43 0.358,-0.374C0.361,-0.387 0.364,-0.399 0.367,-0.411C0.37,-0.424 0.374,-0.436 0.379,-0.449L0.478,-0.449ZM0.244,-0.375C0.203,-0.375 0.174,-0.356 0.157,-0.317C0.14,-0.278 0.132,-0.237 0.132,-0.194C0.132,-0.113 0.158,-0.072 0.209,-0.072C0.24,-0.072 0.266,-0.086 0.287,-0.114C0.308,-0.141 0.322,-0.17 0.329,-0.2L0.337,-0.261C0.338,-0.296 0.33,-0.324 0.312,-0.344C0.293,-0.365 0.271,-0.375 0.244,-0.375Z" style="fill:#a6a6a6;fill-rule:nonzero;"/>
            </g>
            <g transform="matrix(12,0,0,12,180.304,105.582)">
                <path d="M0.069,-0.449L0.191,-0.449L0.195,-0.334C0.206,-0.365 0.22,-0.393 0.239,-0.419C0.258,-0.445 0.28,-0.458 0.307,-0.458C0.326,-0.458 0.343,-0.452 0.358,-0.44L0.341,-0.331C0.324,-0.341 0.306,-0.346 0.289,-0.346C0.266,-0.346 0.247,-0.338 0.23,-0.322C0.213,-0.306 0.202,-0.285 0.195,-0.258L0.171,-0.082L0.26,-0.082L0.252,-0.024L0.225,-0L-0.005,-0L0.003,-0.058L0.03,-0.082L0.068,-0.082L0.102,-0.366L0.035,-0.366L0.042,-0.425L0.069,-0.449Z" style="fill:#a6a6a6;fill-rule:nonzero;"/>
            </g>
            <g transform="matrix(12,0,0,12,184.444,105.582)">
                <path d="M0.3,-0.664L0.327,-0.688L0.496,-0.688L0.422,-0.082L0.486,-0.082L0.479,-0.022L0.452,-0L0.325,-0L0.325,-0.097C0.31,-0.068 0.289,-0.043 0.263,-0.022C0.237,-0.001 0.205,0.01 0.166,0.01C0.117,0.01 0.08,-0.008 0.056,-0.044C0.032,-0.08 0.02,-0.125 0.02,-0.178C0.02,-0.219 0.027,-0.262 0.042,-0.305C0.057,-0.347 0.08,-0.384 0.111,-0.413C0.142,-0.443 0.183,-0.458 0.232,-0.458C0.292,-0.458 0.333,-0.435 0.356,-0.389L0.383,-0.606L0.293,-0.606L0.3,-0.664ZM0.248,-0.375C0.207,-0.375 0.177,-0.356 0.159,-0.317C0.14,-0.278 0.131,-0.236 0.131,-0.191C0.131,-0.154 0.137,-0.125 0.149,-0.104C0.161,-0.083 0.18,-0.072 0.206,-0.072C0.237,-0.072 0.265,-0.086 0.289,-0.115C0.312,-0.143 0.327,-0.172 0.333,-0.203L0.341,-0.268C0.342,-0.301 0.333,-0.328 0.314,-0.346C0.295,-0.366 0.273,-0.375 0.248,-0.375Z" style="fill:#a6a6a6;fill-rule:nonzero;"/>
            </g>
            <g transform="matrix(12,0,0,12,190.576,105.582)">
                <path d="M0.021,-0.192C0.021,-0.261 0.041,-0.323 0.08,-0.377C0.118,-0.431 0.178,-0.458 0.259,-0.458C0.326,-0.458 0.375,-0.438 0.405,-0.399C0.435,-0.36 0.45,-0.31 0.45,-0.251C0.45,-0.175 0.428,-0.113 0.385,-0.064C0.341,-0.015 0.282,0.01 0.209,0.01C0.148,0.01 0.102,-0.008 0.07,-0.044C0.037,-0.08 0.021,-0.129 0.021,-0.192ZM0.132,-0.2C0.132,-0.161 0.138,-0.13 0.15,-0.107C0.162,-0.084 0.185,-0.072 0.219,-0.072C0.262,-0.072 0.293,-0.09 0.312,-0.125C0.331,-0.16 0.34,-0.201 0.34,-0.248C0.34,-0.333 0.309,-0.375 0.248,-0.375C0.171,-0.375 0.132,-0.317 0.132,-0.2Z" style="fill:#a6a6a6;fill-rule:nonzero;"/>
            </g>
            <g transform="matrix(12,0,0,12,198.532,105.582)">
                <path d="M0.02,-0.095L0.092,-0.095L0.14,-0.555L0.068,-0.555L0.078,-0.65L0.355,-0.65C0.426,-0.65 0.48,-0.632 0.515,-0.597C0.55,-0.561 0.568,-0.515 0.568,-0.459C0.568,-0.382 0.543,-0.325 0.494,-0.285C0.445,-0.247 0.386,-0.227 0.319,-0.227L0.213,-0.227L0.199,-0.095L0.3,-0.095L0.29,-0L0.01,-0L0.02,-0.095ZM0.31,-0.321C0.361,-0.321 0.397,-0.334 0.42,-0.359C0.442,-0.384 0.453,-0.415 0.453,-0.454C0.453,-0.486 0.444,-0.511 0.426,-0.529C0.407,-0.546 0.376,-0.555 0.333,-0.555L0.247,-0.555L0.223,-0.321L0.31,-0.321Z" style="fill:#a6a6a6;fill-rule:nonzero;"/>
            </g>
            <g transform="matrix(12,0,0,12,205.144,105.582)">
                <path d="M0.222,-0.072C0.255,-0.072 0.278,-0.081 0.292,-0.099C0.305,-0.117 0.315,-0.135 0.321,-0.152L0.404,-0.135C0.397,-0.096 0.376,-0.063 0.342,-0.034C0.308,-0.005 0.263,0.01 0.206,0.01C0.152,0.01 0.108,-0.006 0.073,-0.039C0.038,-0.071 0.02,-0.121 0.02,-0.189C0.02,-0.262 0.041,-0.326 0.084,-0.379C0.126,-0.432 0.184,-0.458 0.257,-0.458C0.302,-0.458 0.339,-0.447 0.369,-0.426C0.398,-0.404 0.413,-0.375 0.413,-0.339C0.413,-0.306 0.401,-0.277 0.378,-0.254C0.354,-0.231 0.312,-0.213 0.253,-0.2C0.236,-0.196 0.217,-0.193 0.197,-0.19C0.176,-0.187 0.155,-0.184 0.132,-0.181C0.133,-0.146 0.141,-0.119 0.154,-0.101C0.167,-0.082 0.19,-0.072 0.222,-0.072ZM0.202,-0.256C0.246,-0.265 0.274,-0.277 0.286,-0.29C0.299,-0.303 0.305,-0.317 0.305,-0.332C0.305,-0.351 0.299,-0.364 0.288,-0.372C0.276,-0.379 0.261,-0.383 0.244,-0.383C0.209,-0.383 0.184,-0.369 0.167,-0.341C0.15,-0.312 0.14,-0.28 0.135,-0.245C0.148,-0.246 0.16,-0.248 0.171,-0.251C0.182,-0.253 0.193,-0.255 0.202,-0.256Z" style="fill:#a6a6a6;fill-rule:nonzero;"/>
            </g>
            <g transform="matrix(12,0,0,12,210.352,105.582)">
                <path d="M0.192,-0.072C0.249,-0.072 0.277,-0.091 0.277,-0.128C0.277,-0.151 0.266,-0.166 0.243,-0.173C0.22,-0.18 0.193,-0.188 0.162,-0.197C0.133,-0.205 0.106,-0.217 0.082,-0.234C0.057,-0.25 0.045,-0.278 0.045,-0.317C0.045,-0.367 0.064,-0.403 0.102,-0.425C0.139,-0.447 0.181,-0.458 0.226,-0.458C0.253,-0.458 0.281,-0.455 0.312,-0.448C0.343,-0.441 0.369,-0.431 0.392,-0.417L0.391,-0.306L0.308,-0.296L0.306,-0.358C0.279,-0.369 0.253,-0.375 0.229,-0.375C0.209,-0.375 0.191,-0.371 0.175,-0.363C0.16,-0.354 0.152,-0.341 0.152,-0.324C0.152,-0.308 0.16,-0.297 0.177,-0.29C0.193,-0.282 0.216,-0.275 0.247,-0.268C0.277,-0.26 0.308,-0.248 0.339,-0.231C0.37,-0.214 0.385,-0.183 0.385,-0.136C0.385,-0.087 0.367,-0.051 0.331,-0.027C0.295,-0.002 0.251,0.01 0.199,0.01C0.17,0.01 0.137,0.006 0.1,-0.001C0.063,-0.008 0.032,-0.019 0.008,-0.034L0.036,-0.15L0.118,-0.142L0.111,-0.086C0.123,-0.081 0.137,-0.077 0.153,-0.075C0.168,-0.073 0.181,-0.072 0.192,-0.072Z" style="fill:#a6a6a6;fill-rule:nonzero;"/>
            </g>
            <g transform="matrix(12,0,0,12,215.452,105.582)">
                <path d="M0.192,-0.072C0.249,-0.072 0.277,-0.091 0.277,-0.128C0.277,-0.151 0.266,-0.166 0.243,-0.173C0.22,-0.18 0.193,-0.188 0.162,-0.197C0.133,-0.205 0.106,-0.217 0.082,-0.234C0.057,-0.25 0.045,-0.278 0.045,-0.317C0.045,-0.367 0.064,-0.403 0.102,-0.425C0.139,-0.447 0.181,-0.458 0.226,-0.458C0.253,-0.458 0.281,-0.455 0.312,-0.448C0.343,-0.441 0.369,-0.431 0.392,-0.417L0.391,-0.306L0.308,-0.296L0.306,-0.358C0.279,-0.369 0.253,-0.375 0.229,-0.375C0.209,-0.375 0.191,-0.371 0.175,-0.363C0.16,-0.354 0.152,-0.341 0.152,-0.324C0.152,-0.308 0.16,-0.297 0.177,-0.29C0.193,-0.282 0.216,-0.275 0.247,-0.268C0.277,-0.26 0.308,-0.248 0.339,-0.231C0.37,-0.214 0.385,-0.183 0.385,-0.136C0.385,-0.087 0.367,-0.051 0.331,-0.027C0.295,-0.002 0.251,0.01 0.199,0.01C0.17,0.01 0.137,0.006 0.1,-0.001C0.063,-0.008 0.032,-0.019 0.008,-0.034L0.036,-0.15L0.118,-0.142L0.111,-0.086C0.123,-0.081 0.137,-0.077 0.153,-0.075C0.168,-0.073 0.181,-0.072 0.192,-0.072Z" style="fill:#a6a6a6;fill-rule:nonzero;"/>
            </g>
            <g transform="matrix(12,0,0,12,220.552,105.582)">
                <path d="M0.021,-0.192C0.021,-0.261 0.041,-0.323 0.08,-0.377C0.118,-0.431 0.178,-0.458 0.259,-0.458C0.326,-0.458 0.375,-0.438 0.405,-0.399C0.435,-0.36 0.45,-0.31 0.45,-0.251C0.45,-0.175 0.428,-0.113 0.385,-0.064C0.341,-0.015 0.282,0.01 0.209,0.01C0.148,0.01 0.102,-0.008 0.07,-0.044C0.037,-0.08 0.021,-0.129 0.021,-0.192ZM0.132,-0.2C0.132,-0.161 0.138,-0.13 0.15,-0.107C0.162,-0.084 0.185,-0.072 0.219,-0.072C0.262,-0.072 0.293,-0.09 0.312,-0.125C0.331,-0.16 0.34,-0.201 0.34,-0.248C0.34,-0.333 0.309,-0.375 0.248,-0.375C0.171,-0.375 0.132,-0.317 0.132,-0.2Z" style="fill:#a6a6a6;fill-rule:nonzero;"/>
            </g>
            <g transform="matrix(12,0,0,12,226.252,105.582)">
                <path d="M0.478,-0.449C0.471,-0.424 0.464,-0.398 0.458,-0.373C0.451,-0.348 0.447,-0.322 0.444,-0.297L0.417,-0.082L0.478,-0.082L0.471,-0.022L0.445,-0L0.321,-0L0.319,-0.091C0.305,-0.064 0.286,-0.04 0.262,-0.02C0.238,-0 0.207,0.01 0.17,0.01C0.121,0.01 0.084,-0.008 0.059,-0.044C0.034,-0.08 0.021,-0.126 0.021,-0.181C0.021,-0.22 0.028,-0.262 0.042,-0.305C0.056,-0.347 0.078,-0.384 0.109,-0.413C0.139,-0.443 0.179,-0.458 0.229,-0.458C0.296,-0.458 0.339,-0.43 0.358,-0.374C0.361,-0.387 0.364,-0.399 0.367,-0.411C0.37,-0.424 0.374,-0.436 0.379,-0.449L0.478,-0.449ZM0.244,-0.375C0.203,-0.375 0.174,-0.356 0.157,-0.317C0.14,-0.278 0.132,-0.237 0.132,-0.194C0.132,-0.113 0.158,-0.072 0.209,-0.072C0.24,-0.072 0.266,-0.086 0.287,-0.114C0.308,-0.141 0.322,-0.17 0.329,-0.2L0.337,-0.261C0.338,-0.296 0.33,-0.324 0.312,-0.344C0.293,-0.365 0.271,-0.375 0.244,-0.375Z" style="fill:#a6a6a6;fill-rule:nonzero;"/>
            </g>
        </g>
        <g id="Background" transform="matrix(0.350497,0,0,0.295938,207.897,183.55)">
            <path d="M356,68C371.833,68.098 490.333,69.333 522,102C553.667,134.667 550,262 550,262C549.902,277.833 548.667,396.333 516,428C483.333,459.667 356,456 356,456C340.167,455.902 221.667,454.667 190,422C158.333,389.333 162,262 162,262C162.098,246.167 163.333,127.667 196,96C228.667,64.333 356,68 356,68Z" style="fill:#e2a850;"/>
        </g>
        <g id="Shape" transform="matrix(0.730215,0,0,0.68363,291.694,135.19)">
            <path d="M94,154.37L94,127L19,127L19,154.37C18.995,160.472 21.423,166.325 25.75,170.643L39.712,184.5L25.75,198.357C21.455,202.696 19.033,208.536 19,214.63L19,242L94,242L94,214.63C93.967,208.536 91.545,202.696 87.25,198.357L73.288,184.5L87.25,170.643C91.577,166.325 94.005,160.472 94,154.37ZM82,154.37C81.987,157.415 80.961,160.047 78.794,162.194L62.871,178.121C59.497,181.488 59.497,187.611 62.871,190.979L78.794,206.906C80.961,209.053 81.987,211.585 82,214.63L82,230L31,230L31,214.63C31.013,211.585 32.251,209.053 34.418,206.906L50.341,190.979C53.715,187.611 53.715,181.772 50.341,178.405L34.418,162.478C32.251,160.331 31.013,157.415 31,154.37L31,139L82,139L82,154.37Z" style="fill:#fff;fill-rule:nonzero;"/>
        </g>
        <g transform="matrix(1.11089,0,0,0.937965,265.917,228.961)">
            <g transform="matrix(64,0,0,64,146.799,51.5637)">
                <path d="M0.141,-0.702C0.144,-0.703 0.147,-0.703 0.15,-0.7C0.153,-0.697 0.154,-0.693 0.154,-0.689L0.154,-0.525L0.322,-0.525C0.332,-0.525 0.337,-0.52 0.337,-0.51L0.337,-0.476C0.337,-0.466 0.332,-0.461 0.322,-0.461L0.154,-0.461L0.154,-0.118C0.154,-0.091 0.161,-0.073 0.175,-0.064C0.19,-0.055 0.21,-0.051 0.236,-0.051C0.251,-0.051 0.267,-0.052 0.283,-0.055C0.3,-0.058 0.315,-0.061 0.328,-0.064C0.335,-0.065 0.34,-0.062 0.342,-0.055L0.351,-0.018C0.352,-0.013 0.349,-0.009 0.343,-0.006C0.334,-0.003 0.318,0.001 0.297,0.006C0.275,0.011 0.25,0.013 0.221,0.013C0.171,0.013 0.134,0.002 0.111,-0.021C0.087,-0.043 0.075,-0.078 0.075,-0.126L0.075,-0.675C0.075,-0.682 0.079,-0.686 0.087,-0.688L0.141,-0.702Z" style="fill:#404040;fill-rule:nonzero;"/>
            </g>
            <g transform="matrix(64,0,0,64,170.031,51.5637)">
                <path d="M0.154,-0.525C0.164,-0.525 0.169,-0.52 0.169,-0.51L0.169,-0.015C0.169,-0.005 0.164,-0 0.154,-0L0.105,-0C0.095,-0 0.09,-0.005 0.09,-0.015L0.09,-0.51C0.09,-0.52 0.095,-0.525 0.105,-0.525L0.154,-0.525ZM0.154,-0.752C0.164,-0.752 0.169,-0.747 0.169,-0.737L0.169,-0.629C0.169,-0.62 0.164,-0.615 0.154,-0.615L0.105,-0.615C0.095,-0.615 0.09,-0.62 0.09,-0.629L0.09,-0.737C0.09,-0.747 0.095,-0.752 0.105,-0.752L0.154,-0.752Z" style="fill:#404040;fill-rule:nonzero;"/>
            </g>
            <g transform="matrix(64,0,0,64,186.159,51.5637)">
                <path d="M0.704,-0.538C0.763,-0.538 0.807,-0.527 0.835,-0.506C0.862,-0.485 0.876,-0.447 0.876,-0.394L0.876,-0.015C0.876,-0.005 0.871,-0 0.861,-0L0.812,-0C0.801,-0 0.796,-0.005 0.796,-0.015L0.796,-0.385C0.796,-0.418 0.789,-0.442 0.776,-0.455C0.762,-0.468 0.737,-0.474 0.702,-0.474C0.681,-0.474 0.661,-0.473 0.641,-0.47C0.62,-0.468 0.601,-0.466 0.584,-0.463C0.567,-0.46 0.552,-0.456 0.54,-0.453C0.527,-0.45 0.519,-0.447 0.514,-0.446L0.514,-0.015C0.514,-0.005 0.509,-0 0.5,-0L0.451,-0C0.441,-0 0.436,-0.005 0.436,-0.015L0.436,-0.385C0.436,-0.418 0.429,-0.442 0.415,-0.455C0.401,-0.468 0.376,-0.474 0.341,-0.474C0.32,-0.474 0.3,-0.473 0.28,-0.47C0.259,-0.468 0.241,-0.466 0.224,-0.463C0.206,-0.46 0.192,-0.456 0.18,-0.453C0.167,-0.45 0.159,-0.447 0.154,-0.446L0.154,-0.015C0.154,-0.005 0.149,-0 0.14,-0L0.09,-0C0.08,-0 0.075,-0.005 0.075,-0.015L0.075,-0.43C0.075,-0.44 0.075,-0.449 0.076,-0.456C0.077,-0.463 0.079,-0.47 0.082,-0.476C0.085,-0.482 0.091,-0.487 0.098,-0.492C0.105,-0.497 0.114,-0.501 0.127,-0.505C0.14,-0.51 0.155,-0.514 0.173,-0.518C0.192,-0.522 0.211,-0.526 0.231,-0.529C0.25,-0.532 0.27,-0.534 0.29,-0.536C0.309,-0.537 0.327,-0.538 0.343,-0.538C0.406,-0.538 0.452,-0.525 0.479,-0.5C0.493,-0.505 0.51,-0.51 0.529,-0.515C0.548,-0.52 0.569,-0.524 0.59,-0.527C0.611,-0.53 0.631,-0.533 0.651,-0.535C0.671,-0.537 0.689,-0.538 0.704,-0.538Z" style="fill:#404040;fill-rule:nonzero;"/>
            </g>
            <g transform="matrix(64,0,0,64,246.575,51.5637)">
                <path d="M0.281,-0.538C0.334,-0.538 0.376,-0.53 0.407,-0.515C0.439,-0.5 0.463,-0.478 0.48,-0.449C0.493,-0.426 0.502,-0.4 0.506,-0.37C0.51,-0.34 0.512,-0.308 0.512,-0.273L0.512,-0.224C0.512,-0.221 0.51,-0.219 0.507,-0.216C0.504,-0.213 0.502,-0.211 0.499,-0.211L0.132,-0.211C0.132,-0.183 0.135,-0.161 0.14,-0.144C0.145,-0.127 0.152,-0.112 0.163,-0.099C0.178,-0.08 0.197,-0.068 0.222,-0.061C0.246,-0.054 0.276,-0.051 0.311,-0.051C0.342,-0.051 0.368,-0.053 0.389,-0.058C0.41,-0.063 0.433,-0.069 0.456,-0.076C0.459,-0.077 0.461,-0.078 0.462,-0.078L0.465,-0.078C0.469,-0.078 0.472,-0.075 0.474,-0.07L0.485,-0.031C0.486,-0.026 0.486,-0.023 0.484,-0.021C0.481,-0.019 0.478,-0.017 0.475,-0.016C0.455,-0.007 0.43,-0 0.399,0.005C0.368,0.01 0.336,0.013 0.303,0.013C0.254,0.013 0.213,0.007 0.181,-0.004C0.148,-0.015 0.122,-0.033 0.102,-0.056C0.083,-0.079 0.069,-0.107 0.061,-0.141C0.053,-0.176 0.049,-0.216 0.049,-0.262C0.049,-0.304 0.052,-0.342 0.058,-0.376C0.063,-0.41 0.074,-0.439 0.091,-0.463C0.108,-0.487 0.131,-0.505 0.162,-0.519C0.192,-0.532 0.232,-0.538 0.281,-0.538ZM0.279,-0.475C0.239,-0.475 0.209,-0.469 0.188,-0.457C0.167,-0.444 0.152,-0.422 0.143,-0.39C0.138,-0.371 0.135,-0.353 0.134,-0.334C0.133,-0.315 0.132,-0.296 0.131,-0.278L0.429,-0.278C0.428,-0.297 0.427,-0.316 0.426,-0.335C0.425,-0.353 0.421,-0.371 0.416,-0.39C0.407,-0.422 0.393,-0.444 0.372,-0.457C0.35,-0.469 0.32,-0.475 0.279,-0.475Z" style="fill:#404040;fill-rule:nonzero;"/>
            </g>
            <g transform="matrix(64,0,0,64,282.031,51.5637)">
                <path d="M0.325,-0.538C0.328,-0.538 0.331,-0.537 0.334,-0.536C0.337,-0.534 0.339,-0.53 0.339,-0.523L0.339,-0.48C0.339,-0.472 0.336,-0.468 0.33,-0.468C0.297,-0.468 0.266,-0.467 0.238,-0.464C0.21,-0.461 0.182,-0.456 0.154,-0.449L0.154,-0.015C0.154,-0.005 0.149,-0 0.14,-0L0.089,-0C0.08,-0 0.075,-0.005 0.075,-0.015L0.075,-0.432C0.075,-0.454 0.078,-0.47 0.084,-0.479C0.089,-0.488 0.101,-0.497 0.118,-0.505C0.129,-0.51 0.142,-0.514 0.158,-0.519C0.174,-0.523 0.191,-0.526 0.207,-0.529C0.225,-0.532 0.241,-0.534 0.258,-0.536C0.274,-0.537 0.288,-0.538 0.3,-0.538L0.325,-0.538Z" style="fill:#404040;fill-rule:nonzero;"/>
            </g>
        </g>
    </g>
</svg>
