<?xml version="1.0" encoding="UTF-8" standalone="no"?>
<!--
 Copyright (c) 2018 Leonardo Pessoa
 https://lmpessoa.com
 
 Licensed under the Leeow Open Source License, Version 1.0 (the "License"); you may not
 use this file except in compliance with the License. You may obtain a copy of the 
 License at:
 
 https://www.leeow.io/licences/1.0
 
 UNLESS REQUIRED BY APPLICABLE LAW OR AGREED TO IN WRITING, SOFTWARE DISTRIBUTED UNDER
 THE LICENSE IS DISTRIBUTED ON AN "AS IS" BASIS, WITHOUT WARRANTIES OR CONDITIONS OF
 ANY KIND, EITHER EXPRESS OR IMPLIED. See the License for the specific language
 governing permissions and limitations under the License.
-->
<svg
   xmlns:dc="http://purl.org/dc/elements/1.1/"
   xmlns:cc="http://creativecommons.org/ns#"
   xmlns:rdf="http://www.w3.org/1999/02/22-rdf-syntax-ns#"
   xmlns:svg="http://www.w3.org/2000/svg"
   xmlns="http://www.w3.org/2000/svg"
   xmlns:sodipodi="http://sodipodi.sourceforge.net/DTD/sodipodi-0.dtd"
   xmlns:inkscape="http://www.inkscape.org/namespaces/inkscape"
   width="81"
   height="118"
   viewBox="0 0 21.431249 31.220836"
   version="1.1"
   id="svg992"
   inkscape:version="0.92.3 (2405546, 2018-03-11)"
   sodipodi:docname="3.svg">
  <defs
     id="defs986" />
  <sodipodi:namedview
     id="base"
     pagecolor="#ffffff"
     bordercolor="#666666"
     borderopacity="1.0"
     inkscape:pageopacity="0.0"
     inkscape:pageshadow="2"
     inkscape:zoom="4"
     inkscape:cx="33.095833"
     inkscape:cy="70"
     inkscape:document-units="mm"
     inkscape:current-layer="layer1"
     showgrid="false"
     units="px"
     inkscape:window-width="960"
     inkscape:window-height="960"
     inkscape:window-x="960"
     inkscape:window-y="27"
     inkscape:window-maximized="0" />
  <metadata
     id="metadata989">
    <rdf:RDF>
      <cc:Work
         rdf:about="">
        <dc:format>image/svg+xml</dc:format>
        <dc:type
           rdf:resource="http://purl.org/dc/dcmitype/StillImage" />
        <dc:title />
      </cc:Work>
    </rdf:RDF>
  </metadata>
  <g
     inkscape:label="Layer 1"
     inkscape:groupmode="layer"
     id="layer1"
     transform="translate(0,-265.77914)">
    <path
       style="opacity:1;fill:#000000;fill-opacity:1;fill-rule:nonzero;stroke:none;stroke-width:1.10018694;stroke-linejoin:round;stroke-miterlimit:4;stroke-dasharray:none;stroke-dashoffset:0;stroke-opacity:1"
       d="M 0,0 V 118 H 81 V 0 Z m 22.029297,1.8886719 h 47.763672 c 1.338425,0 2.216722,0.1304178 2.84375,0.3945312 0.313512,0.1322835 0.547329,0.3046452 0.74414,0.4804688 0.1968,0.175748 0.4375,0.5253906 0.4375,0.5253906 0.249714,0.5278488 0.143875,1.1538719 -0.263671,1.5722656 L 62.009766,16.664062 c -0.272278,0.287623 -0.654721,0.446798 -1.050782,0.4375 h -31.625 -0.173828 c -0.334711,-0.03402 -1.387664,-0.191263 -1.617187,-0.4375 L 18.048828,5.5605469 C 17.533149,4.991917 17.572597,4.1144177 18.136719,3.59375 c 0,0 0.45866,-0.4224939 1.136719,-0.8300781 0.67806,-0.4075843 1.592031,-0.875 2.755859,-0.875 z m 52.414062,4.3125 c 0.62665,-0.0912 1.235632,0.2489757 1.486329,0.8300781 l 2.886718,6.425781 c 0.118677,0.243969 0.164497,0.517629 0.13086,0.78711 l -4.679688,36.628906 c -0.04806,0.362797 -0.237013,0.692331 -0.52539,0.917969 l -4.986329,4.019531 c -0.537573,0.445606 -1.320187,0.427431 -1.835937,-0.04297 l -7.78711,-7.298828 c -0.324589,-0.301946 -0.487049,-0.739259 -0.4375,-1.179688 l 3.41211,-28.238281 c 0.04315,-0.297713 0.182046,-0.571991 0.394531,-0.785156 L 73.65625,6.6386719 c 0.207088,-0.2284725 0.483651,-0.3823189 0.787109,-0.4375 z M 23.351562,49.123047 h 33.900391 c 0.374502,-0.0087 0.736682,0.134122 1.005859,0.394531 l 6.910157,6.773438 c 0.286628,0.264793 0.451172,0.637296 0.451172,1.027343 0,0.390048 -0.164571,0.762399 -0.451172,1.027344 0,0 -1.79058,1.628173 -3.542969,3.279297 -0.876185,0.825562 -1.725048,1.658332 -2.361328,2.271484 -0.318138,0.306596 -0.580525,0.578976 -0.744141,0.744141 -0.05877,0.06085 -0.104402,0.06143 -0.130859,0.08789 -0.361206,0.348888 -0.632054,0.611328 -1.136719,0.611328 H 22.871094 c -0.504538,0.0045 -0.972326,-0.26257 -1.22461,-0.699219 -0.0062,-0.0094 -0.03598,-0.02785 -0.04297,-0.04297 l -0.04492,-0.04492 c -0.173355,-0.18308 -0.469278,-0.464274 -0.78711,-0.785156 -0.635676,-0.641423 -1.462565,-1.474995 -2.318359,-2.318359 -1.711587,-1.686766 -3.455078,-3.365235 -3.455078,-3.365235 -0.281076,-0.270841 -0.436125,-0.647024 -0.427735,-1.037109 0.0083,-0.390085 0.178361,-0.759058 0.470704,-1.017578 l 7.349609,-6.554688 C 22.60975,49.278452 22.885029,49.155236 23.177734,49.125 Z m 44.064454,9.652344 c 0.276968,0.01318 0.546045,0.108965 0.771484,0.277343 l 5.335938,3.845704 c 0.400932,0.291968 0.616926,0.774198 0.568359,1.267578 l -3.847656,42.310544 c -0.02714,0.27228 -0.13403,0.53173 -0.306641,0.74414 l -3.236328,4.02149 c -0.252817,0.32738 -0.639194,0.52785 -1.052734,0.54297 -0.413545,0.0168 -0.813133,-0.15127 -1.091797,-0.45704 l -9.666016,-10.66406 c -0.283529,-0.29004 -0.428169,-0.689716 -0.394531,-1.093748 l 3.412109,-32.126953 c 0.03587,-0.334488 0.191264,-0.643629 0.4375,-0.873047 l 8.091797,-7.43164 c 0.195273,-0.180662 0.439364,-0.301987 0.701172,-0.34961 0.09274,-0.01417 0.185021,-0.01807 0.277344,-0.01367 z m -47.47461,42.013669 h 0.175782 32.11914 c 0.396057,-0.009 0.776551,0.14988 1.048828,0.4375 l 10.556641,11.80078 c 0.407509,0.4184 0.513385,1.04637 0.263672,1.57422 0,0 -0.2407,0.34769 -0.4375,0.52344 -0.196815,0.17579 -0.430629,0.35014 -0.744141,0.48242 C 62.296805,115.87157 61.418503,116 60.080078,116 H 12.8125 c -1.163828,0 -2.077799,-0.46742 -2.755859,-0.875 -0.6780601,-0.40758 -1.1367191,-0.83008 -1.1367191,-0.83008 -0.5641236,-0.52067 -0.6035713,-1.39817 -0.087891,-1.9668 L 19.066406,101.22656 c 0.229524,-0.24623 0.540289,-0.40348 0.875,-0.4375 z"
       transform="matrix(0.26458333,0,0,0.26458333,0,265.77914)"
       id="rect1607"
       inkscape:connector-curvature="0" />
    <path
       d="m 4.1883614,267.41982 c -0.088559,0.009 -0.1707335,0.0505 -0.2314616,0.11565 0,0 -0.4812924,0.51356 -0.63652,1.23744 -0.00485,0.0152 -0.0087,0.0306 -0.011554,0.0463 l -1.0300045,9.64512 c -0.00678,0.0814 0.013591,0.16268 0.057866,0.23129 l 0.8448352,1.49188 c 0.055484,0.0966 0.151539,0.16305 0.2615258,0.181 0.1099868,0.0179 0.2222106,-0.0145 0.3055554,-0.0885 l 2.4419212,-2.09324 c 0.065153,-0.0607 0.1062388,-0.1428 0.1157306,-0.2313 l 0.9027007,-7.04302 c 0.015073,-0.10348 -0.014332,-0.20851 -0.081011,-0.28912 l -2.6155174,-3.07626 c -0.080097,-0.0937 -0.2015752,-0.14135 -0.3240463,-0.12721 z"
       id="path1487"
       inkscape:connector-curvature="0"
       style="opacity:0.02000002;fill:#ffffff;fill-rule:evenodd;stroke-width:0.37020758"
       inkscape:label="s4" />
    <path
       d="m 3.2046493,281.21199 c -0.06285,0.008 -0.1226232,0.0318 -0.1735966,0.0694 l -1.2036011,0.8558 c -0.086141,0.0629 -0.1409731,0.15981 -0.1504497,0.26599 l -1.14573554,10.72065 c -0.006259,0.0588 0.001481,0.11833 0.0231459,0.17347 l 0.76382374,1.91978 c 0.047126,0.11718 0.1507982,0.20227 0.2749916,0.22569 0.1241929,0.0234 0.2517636,-0.0181 0.3383819,-0.11004 l 2.9511368,-3.07626 c 0.058492,-0.0594 0.095192,-0.13686 0.1041579,-0.21974 L 5.7507279,283.71 c 0.012369,-0.11079 -0.025887,-0.22124 -0.1041579,-0.30069 l -2.1410208,-2.09324 c -0.079497,-0.0782 -0.1900318,-0.11644 -0.3008999,-0.10408 z"
       id="path1481"
       inkscape:connector-curvature="0"
       style="opacity:0.02000002;fill:#ffffff;fill-rule:evenodd;stroke-width:0.37020758"
       inkscape:label="s3" />
  </g>
</svg>
