<?xml version="1.0" encoding="UTF-8" standalone="no"?>
<!--
 Copyright (c) 2018 Leonardo Pessoa
 https://lmpessoa.com
 
 Licensed under the Leeow Open Source License, Version 1.0 (the "License"); you may not
 use this file except in compliance with the License. You may obtain a copy of the 
 License at:
 
 https://www.leeow.io/licences/1.0
 
 UNLESS REQUIRED BY APPLICABLE LAW OR AGREED TO IN WRITING, SOFTWARE DISTRIBUTED UNDER
 THE LICENSE IS DISTRIBUTED ON AN "AS IS" BASIS, WITHOUT WARRANTIES OR CONDITIONS OF
 ANY KIND, EITHER EXPRESS OR IMPLIED. See the License for the specific language
 governing permissions and limitations under the License.
-->
<svg
   xmlns:dc="http://purl.org/dc/elements/1.1/"
   xmlns:cc="http://creativecommons.org/ns#"
   xmlns:rdf="http://www.w3.org/1999/02/22-rdf-syntax-ns#"
   xmlns:svg="http://www.w3.org/2000/svg"
   xmlns="http://www.w3.org/2000/svg"
   xmlns:sodipodi="http://sodipodi.sourceforge.net/DTD/sodipodi-0.dtd"
   xmlns:inkscape="http://www.inkscape.org/namespaces/inkscape"
   width="81"
   height="118"
   viewBox="0 0 21.431249 31.220836"
   version="1.1"
   id="svg992"
   inkscape:version="0.92.3 (2405546, 2018-03-11)"
   sodipodi:docname="blank.svg">
  <defs
     id="defs986" />
  <sodipodi:namedview
     id="base"
     pagecolor="#ffffff"
     bordercolor="#666666"
     borderopacity="1.0"
     inkscape:pageopacity="0.0"
     inkscape:pageshadow="2"
     inkscape:zoom="4"
     inkscape:cx="43.749315"
     inkscape:cy="70"
     inkscape:document-units="mm"
     inkscape:current-layer="layer1"
     showgrid="false"
     units="px"
     inkscape:window-width="960"
     inkscape:window-height="960"
     inkscape:window-x="960"
     inkscape:window-y="27"
     inkscape:window-maximized="0" />
  <metadata
     id="metadata989">
    <rdf:RDF>
      <cc:Work
         rdf:about="">
        <dc:format>image/svg+xml</dc:format>
        <dc:type
           rdf:resource="http://purl.org/dc/dcmitype/StillImage" />
        <dc:title></dc:title>
      </cc:Work>
    </rdf:RDF>
  </metadata>
  <g
     inkscape:label="Layer 1"
     inkscape:groupmode="layer"
     id="layer1"
     transform="translate(0,-265.77914)">
    <rect
       style="opacity:1;fill:#000000;fill-opacity:1;fill-rule:nonzero;stroke:none;stroke-width:0.29109114;stroke-linejoin:round;stroke-miterlimit:4;stroke-dasharray:none;stroke-dashoffset:0;stroke-opacity:1"
       id="rect1607"
       width="21.43125"
       height="31.220833"
       x="0"
       y="265.77914" />
    <path
       d="m 19.696297,267.41982 c -0.08029,0.0146 -0.153524,0.0552 -0.208316,0.11565 l -2.951137,3.07626 c -0.05622,0.0564 -0.09274,0.12939 -0.104158,0.20816 l -0.9027,7.47092 c -0.01311,0.11653 0.02985,0.23237 0.115731,0.31226 l 2.060009,1.93133 c 0.136459,0.12446 0.343837,0.1294 0.48607,0.0115 l 1.319332,-1.06397 c 0.0763,-0.0597 0.126159,-0.14687 0.138876,-0.24286 l 1.238321,-9.69138 c 0.0089,-0.0713 -0.0033,-0.14362 -0.0347,-0.20817 l -0.763823,-1.70004 c -0.06633,-0.15375 -0.227685,-0.24386 -0.393486,-0.21973 z"
       id="path1485"
       inkscape:connector-curvature="0"
       style="opacity:0.02000002;fill:#ffffff;fill-rule:evenodd;stroke-width:0.37020758"
       inkscape:label="s6" />
    <path
       sodipodi:nodetypes="ccccscscscccccc"
       style="opacity:0.02000002;fill:#ffffff;fill-rule:evenodd;stroke-width:0.37020758"
       inkscape:connector-curvature="0"
       id="path1493"
       d="m 7.7151939,270.30368 c -0.088559,-0.009 -0.3671356,-0.0505 -0.4278637,-0.11565 l -2.5117005,-2.93748 c -0.13644,-0.15045 -0.1261112,-0.38266 0.023146,-0.52042 0,0 0.121497,-0.11189 0.3008999,-0.21973 0.1794034,-0.10784 0.4211751,-0.2313 0.7291046,-0.2313 H 18.46625 c 0.354125,0 0.58635,0.0342 0.752251,0.10408 0.08295,0.035 0.144669,0.0807 0.196742,0.12722 0.05207,0.0465 0.115731,0.13878 0.115731,0.13878 0.06607,0.13966 0.03839,0.30563 -0.06944,0.41633 l -3.054954,3.12252 c -0.07204,0.0761 -0.172963,0.11811 -0.277754,0.11565 H 7.7614862 Z"
       inkscape:label="s5" />
    <path
       d="m 4.1883614,267.41982 c -0.088559,0.009 -0.1707335,0.0505 -0.2314616,0.11565 0,0 -0.4812924,0.51356 -0.63652,1.23744 -0.00485,0.0152 -0.0087,0.0306 -0.011554,0.0463 l -1.0300045,9.64512 c -0.00678,0.0814 0.013591,0.16268 0.057866,0.23129 l 0.8448352,1.49188 c 0.055484,0.0966 0.151539,0.16305 0.2615258,0.181 0.1099868,0.0179 0.2222106,-0.0145 0.3055554,-0.0885 l 2.4419212,-2.09324 c 0.065153,-0.0607 0.1062388,-0.1428 0.1157306,-0.2313 l 0.9027007,-7.04302 c 0.015073,-0.10348 -0.014332,-0.20851 -0.081011,-0.28912 l -2.6155174,-3.07626 c -0.080097,-0.0937 -0.2015752,-0.14135 -0.3240463,-0.12721 z"
       id="path1487"
       inkscape:connector-curvature="0"
       style="opacity:0.02000002;fill:#ffffff;fill-rule:evenodd;stroke-width:0.37020758"
       inkscape:label="s4" />
    <path
       d="m 3.2046493,281.21199 c -0.06285,0.008 -0.1226232,0.0318 -0.1735966,0.0694 l -1.2036011,0.8558 c -0.086141,0.0629 -0.1409731,0.15981 -0.1504497,0.26599 l -1.14573554,10.72065 c -0.006259,0.0588 0.001481,0.11833 0.0231459,0.17347 l 0.76382374,1.91978 c 0.047126,0.11718 0.1507982,0.20227 0.2749916,0.22569 0.1241929,0.0234 0.2517636,-0.0181 0.3383819,-0.11004 l 2.9511368,-3.07626 c 0.058492,-0.0594 0.095192,-0.13686 0.1041579,-0.21974 L 5.7507279,283.71 c 0.012369,-0.11079 -0.025887,-0.22124 -0.1041579,-0.30069 l -2.1410208,-2.09324 c -0.079497,-0.0782 -0.1900318,-0.11644 -0.3008999,-0.10408 z"
       id="path1481"
       inkscape:connector-curvature="0"
       style="opacity:0.02000002;fill:#ffffff;fill-rule:evenodd;stroke-width:0.37020758"
       inkscape:label="s3" />
    <path
       sodipodi:nodetypes="ccccscscscccccc"
       d="m 5.2762314,292.44624 c -0.088559,0.009 -0.1707335,0.0505 -0.2314617,0.11565 l -2.708102,2.93748 c -0.1364405,0.15045 -0.1261117,0.38266 0.023146,0.52042 0,0 0.1214971,0.11189 0.3009004,0.21973 0.1794034,0.10784 0.4211752,0.2313 0.7291046,0.2313 H 15.896351 c 0.354125,0 0.58635,-0.0342 0.75225,-0.10409 0.08295,-0.035 0.144669,-0.0807 0.196743,-0.12721 0.05207,-0.0465 0.115731,-0.13878 0.115731,-0.13878 0.06607,-0.13966 0.03838,-0.30563 -0.06944,-0.41633 l -2.793083,-3.12252 c -0.07204,-0.0761 -0.172964,-0.11811 -0.277754,-0.11565 H 5.3225237 Z"
       id="path1483"
       inkscape:connector-curvature="0"
       style="opacity:0.02000002;fill:#ffffff;fill-rule:evenodd;stroke-width:0.37020758"
       inkscape:label="s2" />
    <path
       d="m 17.763591,281.33391 c -0.06927,0.0126 -0.133503,0.0447 -0.185169,0.0925 l -2.141021,1.96603 c -0.06515,0.0607 -0.106239,0.1428 -0.115731,0.2313 l -0.9027,8.50019 c -0.0089,0.1069 0.02914,0.21238 0.104157,0.28912 l 2.557652,2.82184 c 0.07373,0.0809 0.179522,0.12505 0.288939,0.12059 0.109416,-0.004 0.211252,-0.0571 0.278143,-0.14372 l 0.856408,-1.06397 c 0.04567,-0.0562 0.07383,-0.12457 0.08101,-0.19661 l 1.018432,-11.19481 c 0.01285,-0.13054 -0.04437,-0.25813 -0.15045,-0.33538 l -1.411916,-1.01771 c -0.07953,-0.0594 -0.179604,-0.0844 -0.277755,-0.0694 z"
       id="path1489"
       inkscape:connector-curvature="0"
       style="opacity:0.02000002;fill:#ffffff;fill-rule:evenodd;stroke-width:0.37020758"
       inkscape:label="s1" />
    <path
       d="m 6.1324363,278.77654 c -0.077445,0.008 -0.1503389,0.0406 -0.2083158,0.0925 l -1.9442783,1.73473 c -0.077349,0.0684 -0.1225859,0.16604 -0.1247821,0.26925 -0.00222,0.10321 0.038841,0.20264 0.1132089,0.2743 0,0 0.4614165,0.44421 0.9142739,0.8905 0.2264289,0.22314 0.4451842,0.44323 0.6133735,0.61294 0.084093,0.0849 0.1624489,0.15972 0.2083157,0.20816 l 0.011555,0.0115 c 0.00185,0.004 0.00992,0.009 0.011555,0.0115 0.06675,0.11553 0.190554,0.18622 0.3240463,0.18504 h 9.0964456 c 0.133526,0 0.205331,-0.0696 0.3009,-0.16191 0.007,-0.007 0.01915,-0.007 0.0347,-0.0231 0.04329,-0.0437 0.112568,-0.11549 0.196742,-0.19661 0.168349,-0.16223 0.393123,-0.38294 0.624947,-0.60137 0.463653,-0.43686 0.93742,-0.86737 0.93742,-0.86737 0.07583,-0.0701 0.118957,-0.16857 0.118957,-0.27177 0,-0.1032 -0.04312,-0.20172 -0.118957,-0.27178 l -1.828547,-1.79255 c -0.07122,-0.0689 -0.167094,-0.10638 -0.266181,-0.10409 H 6.1786727 Z"
       id="path1491"
       inkscape:connector-curvature="0"
       style="opacity:0.02000002;fill:#ffffff;fill-rule:evenodd;stroke-width:0.37020758"
       inkscape:label="s0" />
  </g>
</svg>
